<svg width="31" height="30" viewBox="0 0 31 30" fill="none" xmlns="http://www.w3.org/2000/svg">
<path d="M18.6775 16.8434C17.1828 17.9723 16.3124 19.5462 15.7301 21.6537C15.6485 21.9493 15.5719 22.2574 15.4997 22.5786C15.4089 22.1758 15.3111 21.7935 15.2049 21.4306C14.5759 19.2813 13.6232 17.7186 11.9913 16.6197C10.8786 15.8657 9.50428 15.3736 7.83869 15.0098C9.65839 14.6114 11.1331 14.0599 12.2997 13.1785L12.3003 13.178C13.8036 12.0403 14.6806 10.4691 15.2668 8.35828C15.3507 8.05609 15.4292 7.74076 15.5031 7.4118C15.5359 7.55771 15.5696 7.70087 15.6043 7.84133C16.1002 9.84928 16.8167 11.41 18.0331 12.5863C19.2454 13.7587 20.8543 14.4521 22.9218 14.9317C23.0045 14.9509 23.0882 14.9698 23.1728 14.9884C21.34 15.3905 19.8583 15.9488 18.6775 16.8434ZM18.6775 16.8434C18.6779 16.8432 18.6782 16.8429 18.6785 16.8427L19.281 17.6408M18.6775 16.8434C18.6774 16.8435 18.6773 16.8436 18.6771 16.8437L19.281 17.6408M19.281 17.6408C20.7787 16.506 22.9341 15.9238 26.1689 15.4938L16.0051 25.4747C16.5715 21.4158 17.3781 19.0774 19.281 17.6408Z" fill="#141414" stroke="#141414" stroke-width="2"/>
</svg>
