<svg width="61" height="56" viewBox="0 0 61 56" fill="none" xmlns="http://www.w3.org/2000/svg">
<path d="M56.9456 34.2265C56.9296 34.2636 56.9083 34.2954 56.887 34.3339L56.8817 34.3445C56.6993 34.607 56.4744 34.8522 56.2055 35.0656C55.669 35.4938 54.9662 35.8199 54.1009 36.0068C53.5538 36.1248 52.9415 36.1938 52.2706 36.1991C48.0308 36.2415 42.6423 33.9057 38.8578 30.6248C37.9407 29.8281 37.1193 28.9783 36.4325 28.0915C36.3899 28.0384 36.3459 27.9841 36.3033 27.9258C35.9333 27.434 35.6165 26.9528 35.3582 26.4875L35.5086 26.4185C35.6324 26.3655 35.7722 26.3112 35.9106 26.2528C35.9479 26.2422 35.9852 26.2263 36.0185 26.2051C36.5389 26.0023 36.9529 25.5264 37.2312 24.7893C37.2897 24.6289 37.3443 24.4526 37.3922 24.2657C37.3975 24.2551 37.3976 24.2445 37.4029 24.2339C37.4402 24.0629 37.4774 23.8866 37.5107 23.6944C37.5533 23.4107 37.5852 23.1111 37.6079 22.7863C37.6505 22.032 37.6185 21.1982 37.516 20.322C37.4082 19.333 37.2152 18.2858 36.9476 17.2054C36.7865 16.5532 36.5989 15.8851 36.3899 15.2169C35.5206 12.4755 34.248 9.67978 32.7611 7.36523C32.439 6.86811 32.1062 6.39218 31.7681 5.94412C31.6816 5.82614 31.5964 5.71481 31.5098 5.60744C30.8922 4.82664 30.2918 4.19696 29.7221 3.71045C28.8954 3.01052 28.1327 2.61416 27.4684 2.52402C27.2435 2.4975 27.0331 2.50279 26.8348 2.53991H26.8188C26.6418 2.60884 26.4701 2.6791 26.2983 2.74273C26.325 2.72682 26.3516 2.71093 26.3836 2.69503C26.4049 2.68442 26.4315 2.67379 26.4528 2.66318L26.3836 2.68972C26.0667 2.81831 25.7552 2.94688 25.461 3.07414L25.284 3.14838C25.2787 3.14838 25.2787 3.14839 25.2787 3.15369H25.2627C24.6717 3.41617 23.8996 3.79529 23.3032 4.07367C23.3951 4.03125 23.4963 4.00473 23.6041 3.99943C23.7705 3.98352 23.9582 4.01004 24.1619 4.07367C24.7249 4.24998 25.4238 4.73648 26.2118 5.52789C26.7696 6.07802 27.3713 6.77929 28.0156 7.62372C28.0528 7.67144 28.0847 7.72578 28.1234 7.7735C28.5307 8.31833 28.934 8.89631 29.3307 9.49947C30.6246 11.4879 31.8426 13.7587 32.841 15.9991C33.1472 16.6937 33.4374 17.3883 33.6996 18.0724C34.1509 19.2376 34.5262 20.3604 34.8058 21.4076C35.0361 22.2786 35.2078 23.0912 35.2943 23.8229C35.3316 24.1278 35.3529 24.4049 35.3635 24.6674C35.3742 25.0359 35.3582 25.362 35.3156 25.6404C35.2238 26.2608 34.9988 26.6505 34.6607 26.8162C34.6607 26.8215 34.6553 26.8215 34.65 26.8215C34.634 26.8321 34.6181 26.8427 34.6021 26.848C34.9136 27.4366 35.3103 28.061 35.8042 28.7079V28.7132C35.8627 28.7927 35.9279 28.8736 35.9865 28.9478C39.534 33.4802 46.1579 37.6281 50.9448 38.2803C51.4333 38.3492 51.8845 38.377 52.2972 38.3664C53.0373 38.3505 53.6497 38.2167 54.1382 37.9767C54.4444 37.8269 54.7013 37.6347 54.9063 37.4054C54.9489 37.3576 54.9928 37.3033 55.0301 37.2503C55.0354 37.245 55.0407 37.2343 55.046 37.229L55.2124 36.9891C55.2177 36.9838 55.2231 36.9785 55.2284 36.9732C55.255 36.9414 55.2763 36.899 55.2976 36.8658C55.303 36.8605 55.3083 36.8605 55.3083 36.8552C55.4481 36.6577 55.5985 36.4323 55.7489 36.2083C55.9259 35.9352 56.1083 35.6476 56.28 35.3586L56.4305 35.1293C56.4518 35.0868 56.4784 35.0497 56.4997 35.0113C56.5263 34.9688 56.5476 34.9317 56.5742 34.8933L56.7672 34.5513C56.8258 34.4545 56.8804 34.3591 56.9336 34.2676C56.9922 34.1708 57.0468 34.0754 57.1 33.9786C57.116 33.9521 57.1266 33.9203 57.1426 33.8924C57.1266 33.9136 57.116 33.9295 57.1054 33.9508C57.0854 33.9852 57.0641 34.021 57.0441 34.0568L57.1719 33.8301C57.1732 33.8275 57.1745 33.8248 57.1759 33.8222C57.124 33.9136 57.0734 34.0051 57.0215 34.0966C56.9962 34.139 56.9709 34.1841 56.9456 34.2265Z" fill="black"/>
<path d="M16.0151 8.55431L16.0205 8.549H16.0151C16.0151 8.549 16.0151 8.54901 16.0151 8.55431Z" fill="black"/>
<path d="M51.7661 41.2762C51.5837 41.426 51.3361 41.5161 51.0259 41.544C50.6506 41.5758 50.1886 41.5175 49.6309 41.3624C49.3513 41.2828 49.0465 41.1807 48.7191 41.0522C46.9313 40.3469 44.7522 38.9842 42.5731 37.2887C41.3005 36.2998 40.0239 35.1982 38.8325 34.0449C37.3829 32.6503 36.0464 31.1802 34.9682 29.7472C34.4051 28.9995 33.9432 28.3088 33.5891 27.6845C33.5465 27.6155 33.5092 27.54 33.4653 27.4711C33.4653 27.4658 33.46 27.4658 33.46 27.4604C33.3149 27.5519 33.1645 27.6421 33.0353 27.7176L33.0087 27.7335C32.9222 27.7866 32.8317 27.8515 32.7292 27.9099C32.7132 27.9205 32.6972 27.9311 32.6813 27.9364C32.7505 27.8939 32.7891 27.7919 32.7891 27.6421C32.7891 27.5029 32.7571 27.3213 32.6972 27.0972C32.6387 26.8838 32.5521 26.6213 32.439 26.3218C32.3525 26.1083 32.2566 25.8617 32.1435 25.6006C31.848 24.9272 31.4726 24.1517 31.0266 23.3073C30.4249 22.1526 29.7008 20.8694 28.9061 19.5332C27.4405 17.0741 25.7286 14.4401 24.0806 12.1362C23.6786 11.5754 23.2806 11.0346 22.8946 10.5162C22.4766 9.9608 22.0839 9.46369 21.7245 9.02491C20.8712 7.98296 20.1896 7.25517 19.7064 6.85483C19.5347 6.71564 19.3843 6.6149 19.2605 6.56054C19.1527 6.50752 19.0675 6.49159 19.0023 6.5075C18.997 6.5075 18.9916 6.5075 18.9916 6.5075C18.965 6.52341 18.9384 6.53933 18.9171 6.55524C18.9224 6.54993 18.9277 6.54465 18.9331 6.53935C18.8958 6.56586 18.8585 6.58704 18.8199 6.61356C18.535 6.78987 18.2515 6.97148 17.9986 7.14248C17.9666 7.169 17.9294 7.19021 17.8961 7.21142L17.8588 7.23792C17.558 7.44075 17.2145 7.68731 16.8711 7.93255C16.8658 7.93255 16.8658 7.93786 16.8604 7.93786C16.8285 7.95907 16.7966 7.98028 16.7686 8.00149C16.7366 8.028 16.7047 8.04922 16.6714 8.07043C16.553 8.14996 16.4411 8.23083 16.328 8.31037C16.2907 8.33688 16.2588 8.36341 16.2255 8.38462C16.2042 8.40583 16.1829 8.41641 16.1616 8.43232C16.1509 8.44293 16.1403 8.45356 16.1296 8.45886C16.1243 8.46416 16.119 8.46414 16.1136 8.46944C16.103 8.48005 16.0923 8.48537 16.0817 8.49067C16.0657 8.50658 16.0498 8.51719 16.0338 8.52779L16.0178 8.54368C16.0285 8.55429 16.0977 8.64576 16.2321 8.81147C16.3346 8.94535 16.4731 9.12167 16.6448 9.3457C17.128 9.9714 17.8734 10.9603 18.8718 12.2753C19.0329 12.4888 19.1993 12.7088 19.371 12.9381C20.3108 14.1776 21.3411 15.547 22.3927 16.9469C23.0636 17.839 23.7452 18.7484 24.4161 19.6405C25.8378 21.5375 27.2128 23.3762 28.3616 24.9166C28.9686 25.7345 29.5158 26.4716 29.9723 27.0866C30.1387 27.3107 30.2892 27.5148 30.4183 27.6964C30.606 27.9483 30.7617 28.1564 30.8855 28.3274C31.1544 28.7012 31.2822 28.8829 31.2822 28.8935C31.0732 29.0486 30.8256 29.2355 30.6273 29.3959C30.5953 29.4224 30.5687 29.4489 30.5354 29.4701C30.5354 29.4754 30.5301 29.4754 30.5248 29.4807C30.5194 29.486 30.5088 29.4913 30.5035 29.5019L30.5088 29.5072C30.7497 29.7909 31.0133 30.1064 31.2982 30.459C31.6416 30.8925 32.017 31.3777 32.4243 31.9119C32.4243 31.9119 32.4243 31.9119 32.423 31.9119C32.8583 32.4873 33.3042 33.0944 33.7568 33.7227C35.3542 35.9432 37.0222 38.438 38.4838 40.7698C39.2944 42.065 40.0426 43.3097 40.6788 44.4312C41.1794 45.3141 41.612 46.12 41.9514 46.8134C41.9767 46.7961 42.002 46.7802 42.0273 46.763C42.002 46.7802 41.9767 46.7974 41.9514 46.8134C42.0726 47.0599 42.1777 47.284 42.2696 47.4894C42.4267 47.8407 42.5411 48.131 42.6144 48.3643C42.7235 48.7077 42.7448 48.9224 42.6836 49.0126C42.6783 49.0205 42.6716 49.0258 42.6636 49.0325C42.7515 48.9755 42.8393 48.9185 42.9219 48.8641L43.1095 48.7382L43.1309 48.7236C43.7565 48.2941 44.5419 47.7214 45.2074 47.2336C45.3286 47.1448 45.4457 47.0586 45.5576 46.9777C45.5549 46.9764 45.5509 46.9737 45.5469 46.9724C45.5003 46.9472 45.3792 46.82 45.1902 46.6026C45.0291 46.417 44.8201 46.1665 44.5685 45.8629C44.4247 45.6879 44.2663 45.4957 44.096 45.2875C44.072 45.3061 44.0467 45.3247 44.0214 45.3432C44.0454 45.3247 44.0707 45.3061 44.0946 45.2862C43.5555 44.6234 42.9059 43.8134 42.1857 42.9054C40.6722 40.9991 38.8432 38.6567 37.0395 36.321C37.0288 36.3064 37.0168 36.2918 37.0062 36.2772C35.687 34.5685 34.3825 32.8637 33.2284 31.3366C33.0726 31.1285 32.9235 30.931 32.7837 30.744C32.1927 29.9632 31.7321 29.3389 31.3621 28.8418C31.4646 28.7675 31.5657 28.6867 31.6736 28.6124L31.9691 28.399L32.1461 28.2757C32.1568 28.2757 32.1621 28.2704 32.1674 28.2651L32.21 28.2386C32.2526 28.2121 32.2899 28.1856 32.3285 28.1591C32.3338 28.1591 32.3338 28.1538 32.3392 28.1538C32.419 28.1007 32.5055 28.0411 32.5921 27.988C33.01 28.688 33.5744 29.5112 34.2826 30.4418C34.6793 30.9707 35.104 31.5103 35.5552 32.0564C37.954 34.9795 40.9757 38.0801 43.6274 40.3787C44.8241 41.4101 45.9409 42.2863 46.8953 42.9067C47.1483 43.0724 47.3839 43.2116 47.5982 43.3349C48.0228 43.5695 48.3716 43.7246 48.6552 43.8002C48.94 43.8797 49.1543 43.8745 49.2941 43.7896C49.3047 43.7843 49.3154 43.7737 49.326 43.7684C49.3367 43.7578 49.3473 43.7472 49.358 43.7419L49.3899 43.7101L49.7227 43.3945L49.7454 43.372C49.7494 43.368 49.7533 43.3641 49.7573 43.3601C49.8146 43.3057 49.8732 43.2514 49.9331 43.1944C50.1633 42.973 50.411 42.7225 50.6492 42.4759C50.7038 42.4202 50.7571 42.3659 50.8103 42.3115C50.9448 42.171 51.0792 42.0305 51.211 41.8886C51.2176 41.882 51.2243 41.8741 51.2309 41.8661C51.2349 41.8621 51.2389 41.8582 51.2429 41.8542L51.2695 41.825C51.3854 41.6991 51.5092 41.5652 51.6356 41.426C51.6236 41.4393 51.6103 41.4525 51.5983 41.4658C51.609 41.4525 51.621 41.4406 51.633 41.4273C51.6702 41.3902 51.7022 41.3531 51.7355 41.3146C51.7461 41.3093 51.7514 41.2987 51.7621 41.2881C51.7834 41.2669 51.8047 41.2404 51.826 41.2139C51.8047 41.2298 51.794 41.2457 51.7781 41.2616C51.7767 41.2709 51.7714 41.2762 51.7661 41.2762Z" fill="black"/>
<path d="M51.9218 41.1211C51.9271 41.1105 51.9378 41.0999 51.9431 41.0893C51.9058 41.1317 51.8632 41.1741 51.83 41.2179C51.8632 41.1861 51.8899 41.1542 51.9218 41.1211Z" fill="black"/>
<path d="M1.80769 44.186C1.83431 44.2443 1.86095 44.3026 1.88757 44.3583C1.92351 44.4272 1.9568 44.4935 1.99008 44.5585C1.88491 44.3371 1.77974 44.1091 1.68257 43.8903C1.72117 43.9898 1.76376 44.0879 1.80769 44.186Z" fill="black"/>
<path d="M25.4757 35.1253C25.485 35.1863 25.4903 35.2459 25.497 35.3069C25.493 35.2631 25.4863 35.2154 25.4797 35.1544L25.4757 35.1253Z" fill="black"/>
<path d="M60.9591 19.0255C60.9591 19.0149 60.9591 19.0056 60.9577 18.995L60.9551 18.9685C60.9524 18.9168 60.9484 18.8637 60.9457 18.8147C60.9377 18.6941 60.9271 18.5668 60.9138 18.4369C60.9031 18.3149 60.8925 18.193 60.8805 18.071C60.8805 18.0644 60.8792 18.0578 60.8792 18.0511C60.8792 18.0564 60.8805 18.0631 60.8805 18.0684C60.8858 18.1439 60.8898 18.2155 60.8952 18.2871C60.9191 18.653 60.9391 18.9579 60.9551 19.2243C60.9378 18.9565 60.9191 18.653 60.8952 18.2871C61.0456 21.0391 60.0206 24.8344 54.5189 27.7481C54.5242 27.8224 54.5296 27.8979 54.5402 27.9722C54.5296 27.8979 54.5242 27.8224 54.5136 27.7481C53.623 28.1816 52.6939 28.5236 51.7501 28.7795C50.371 29.1427 48.9533 29.3243 47.5636 29.3243C43.8017 29.3243 40.189 28.0199 37.8754 25.6046C37.9779 25.5781 38.0844 25.5569 38.1816 25.5356L38.316 25.5091L38.3214 25.5038C38.3267 25.5038 38.3267 25.5038 38.3267 25.5038C38.3586 25.4985 38.3906 25.4932 38.4239 25.4879C41.0968 27.6898 45.0038 28.46 48.8735 27.6633C50.0063 27.434 51.1378 27.0694 52.2333 26.567C52.8297 26.2886 53.4194 25.9731 53.9931 25.6152C59.1354 22.3979 61.2985 16.8819 59.4841 12.4556C59.3284 12.1136 59.1992 11.8246 59.0768 11.5688C59.0661 11.5476 59.0555 11.5211 59.0395 11.4946C58.9317 11.2599 58.8252 11.0452 58.7174 10.837C58.5882 10.5918 58.4591 10.3452 58.3047 10.0828C58.2408 9.9807 58.1809 9.87463 58.117 9.76725C58.0092 9.60155 57.9027 9.42524 57.7789 9.23302C58.5843 10.6011 58.9863 12.1348 59.0129 13.7176C59.0342 14.9359 58.8359 16.182 58.4338 17.4056C57.5806 19.9707 55.8248 22.435 53.2756 24.3002C52.8031 24.6475 52.3145 24.963 51.8153 25.2467C50.9035 25.7703 49.9583 26.1879 48.9973 26.5034C45.3312 27.6951 41.5255 27.316 38.762 25.4349H38.7407C38.8538 25.4137 38.971 25.3925 39.0841 25.366C41.7731 26.7234 45.1542 26.6492 48.321 25.1525C49.1051 24.7787 49.8772 24.324 50.6186 23.7792C51.026 23.4796 51.4293 23.1535 51.8153 22.8009C53.2104 21.5442 54.3219 20.0754 55.1432 18.5138C57.124 14.7397 57.3702 10.4115 55.5891 7.11864C55.3748 6.7183 55.1272 6.33255 54.849 5.96933C54.3552 5.31182 53.7921 4.75108 53.1691 4.28578C52.622 3.88544 51.8539 3.39363 51.2802 3.02378C51.2802 3.02378 51.2802 3.02378 51.2749 3.02378C51.2696 3.01848 51.2695 3.01847 51.2642 3.01316C51.0606 2.89518 50.8569 2.77852 50.6625 2.67645C50.5773 2.62872 50.4962 2.58498 50.411 2.54256C50.3843 2.52665 50.3524 2.51076 50.3191 2.49485C50.19 2.43122 50.0555 2.36097 49.9224 2.29733L49.8798 2.2708C49.8639 2.26549 49.8532 2.26021 49.8426 2.25491C49.8266 2.2496 49.8106 2.23898 49.7946 2.23367C49.752 2.21246 49.7148 2.19656 49.6708 2.17535C49.6762 2.17933 49.6815 2.18199 49.6868 2.18464C49.6815 2.18199 49.6762 2.17933 49.6708 2.17668C49.6336 2.15812 49.5963 2.13958 49.559 2.12234C49.5683 2.12632 49.5777 2.1316 49.5856 2.13558C49.551 2.11967 49.5178 2.10378 49.4831 2.0892C49.4778 2.08655 49.4725 2.08522 49.4672 2.08257C49.3673 2.0375 49.2675 1.99375 49.1663 1.95266C49.1676 1.95398 49.169 1.95399 49.1716 1.95531C49.3553 2.03617 49.5364 2.11967 49.7174 2.20451C49.8133 2.25356 49.9131 2.30396 50.0156 2.35698C50.0169 2.35698 50.0169 2.35831 50.0183 2.35831C50.8396 2.813 51.5957 3.42147 52.2559 4.18636C52.3904 4.33616 52.5195 4.49123 52.642 4.65163C55.3522 8.24276 55.3682 13.7269 53.0387 18.3189C52.3678 19.6392 51.5038 20.884 50.4575 21.9909H50.4522L50.4469 21.9962C50.1088 22.3594 49.76 22.6855 49.4006 22.9957C48.7723 23.5406 48.1227 24.0006 47.4518 24.3903C44.7149 25.989 41.7305 26.3138 39.2026 25.3368C40.1584 25.0637 41.0489 24.4606 41.8117 23.5141C42.1125 23.1508 42.3854 22.7333 42.6436 22.2693C42.8154 21.9538 42.9764 21.6171 43.1322 21.2592C43.1162 21.2592 43.1002 21.2645 43.0843 21.2645C43.1002 21.2592 43.1162 21.2592 43.1322 21.2539C43.4756 20.4307 43.7392 19.5332 43.9216 18.592C44.1306 17.5288 44.2384 16.4113 44.2543 15.2726C44.2597 14.5409 44.2331 13.7972 44.1625 13.0548C43.8936 10.1371 43.035 7.21276 41.6666 4.86109C41.3817 4.36398 41.0702 3.8987 40.7374 3.45594C40.6243 3.31144 40.5125 3.16692 40.3993 3.02773C39.7604 2.25753 39.0895 1.64907 38.4026 1.20498C37.5493 0.64424 36.6747 0.339353 35.8214 0.285002C35.6018 0.274397 35.3808 0.274407 35.1665 0.295617C35.0973 0.30092 35.0267 0.311513 34.9575 0.316816L33.5079 0.562071L33.4653 0.572686C33.4387 0.577989 33.4067 0.583274 33.3788 0.588577C33.3468 0.593879 33.3149 0.599197 33.2869 0.6045C32.7345 0.722481 32.0636 0.882858 31.5152 1.01012C31.7561 0.967699 32.0037 0.951809 32.2553 0.962414C33.05 0.999532 33.8979 1.32034 34.7565 1.93013C35.3635 2.35831 35.9745 2.93496 36.5762 3.6508C36.7266 3.82711 36.8771 4.01402 37.0222 4.21154C37.2418 4.49522 37.4521 4.80012 37.6558 5.109C39.2825 7.59456 40.4419 10.7853 40.9837 13.939C41.1075 14.6496 41.198 15.3614 41.2526 16.0614C41.3391 17.1404 41.3497 18.189 41.2685 19.1885C41.1993 20.0807 41.0596 20.9357 40.8439 21.7165V21.7218C40.7467 22.0691 40.6402 22.3952 40.5164 22.7001C40.3394 23.1495 40.1411 23.5499 39.9148 23.9025C39.3291 24.8278 38.5889 25.4044 37.757 25.6337L37.741 25.639C37.725 25.6443 37.7144 25.6444 37.6984 25.6497C37.6119 25.6709 37.5213 25.6974 37.4242 25.7239C37.4188 25.7292 37.4135 25.7292 37.4135 25.7292C39.2492 27.9523 42.0939 29.4754 45.2394 30.1382C46.8927 30.4855 48.6205 30.5982 50.3324 30.4431C51.7714 30.3092 53.1931 29.9885 54.5349 29.4701C58.346 27.8714 60.4279 25.4932 60.9111 22.2004C60.9164 22.1632 60.9218 22.1261 60.9271 22.0877C60.9271 22.0718 60.9271 22.0559 60.9324 22.04C60.9378 21.8637 60.9484 21.682 60.9537 21.4898C60.9537 21.4368 60.9591 21.3878 60.9591 21.34V21.3029C60.971 20.9874 60.979 20.7262 60.9857 20.4929C60.9803 20.7382 60.9724 21.0113 60.9604 21.3387C60.9604 21.3361 60.9604 21.3321 60.9604 21.3294C60.9764 21.0179 60.9897 20.717 60.9963 20.4466C61.0096 20.0224 60.9843 19.4802 60.9591 19.0255Z" fill="black"/>
<path d="M38.8205 48.6573C38.7021 47.9362 38.5037 47.1289 38.2468 46.2632C37.93 45.216 37.5174 44.0773 37.0341 42.9067C36.6694 42.0358 36.2714 41.1476 35.8428 40.2608C34.9629 38.4486 33.9538 36.6259 32.8902 34.9742C32.4549 34.3007 32.0157 33.6538 31.5751 33.044C31.4672 32.8942 31.3554 32.7497 31.2476 32.6052C30.6299 31.782 30.0456 31.098 29.5144 30.5532L29.4119 30.4511L29.4598 30.4034C29.3147 30.5372 29.0192 30.5107 28.5693 30.3066C28.3497 30.2045 28.0967 30.0667 27.8065 29.8837C27.6029 29.7551 27.3766 29.6053 27.141 29.4343H27.1356C26.2877 28.8246 25.3106 28.0119 24.2537 27.0614C21.5009 24.5759 18.2635 21.1399 15.7462 17.9968C15.4081 17.5739 15.0807 17.1524 14.7692 16.7467C13.8241 15.4967 13.1265 14.4534 12.6766 13.6407C12.4676 13.2616 12.3119 12.9302 12.2094 12.6518C12.0536 12.2343 12.027 11.9413 12.1228 11.7862C12.1282 11.7756 12.1282 11.7703 12.1335 11.765C12.1441 11.7544 12.1601 11.7385 12.1761 11.7226C12.1495 11.7438 12.1282 11.765 12.1015 11.7862L11.7475 12.1229L11.2696 12.5723C11.211 12.6306 11.1458 12.6903 11.0819 12.7539C11.0766 12.7539 11.0766 12.7539 11.0712 12.7592C10.9368 12.8931 10.8023 13.027 10.6745 13.1596C10.4003 13.4379 10.1221 13.7256 9.87452 13.9828C9.81595 14.0517 9.7507 14.1167 9.6868 14.1803C9.6655 14.2015 9.63891 14.228 9.61761 14.2545C9.60164 14.2704 9.59099 14.2863 9.58034 14.3022C9.56969 14.3075 9.56434 14.3182 9.55902 14.3235C9.31275 14.6655 9.31276 15.2262 9.56435 15.9752C9.69879 16.3861 9.91311 16.8567 10.198 17.3751C10.584 18.0697 11.0992 18.8558 11.7594 19.7267C12.6233 20.8761 13.6483 22.0572 14.7652 23.2118C16.3759 24.8847 18.1676 26.4994 19.9288 27.8727C21.8443 29.3694 23.7292 30.5823 25.2853 31.2663H25.2907C25.6075 31.4055 25.8923 31.5182 26.1652 31.6084C26.5566 31.737 26.9 31.8112 27.2009 31.8377C27.7107 31.8854 28.0754 31.7847 28.2964 31.5487L28.3017 31.5434C28.3177 31.5328 28.3284 31.5169 28.339 31.5063C28.3603 31.4851 28.3816 31.4639 28.4029 31.4427L28.5586 31.2823L28.725 31.1113C29.1923 31.5606 29.6808 32.1055 30.1853 32.7471C30.2492 32.8333 30.3145 32.9181 30.3837 33.0096C30.7271 33.4696 31.0652 33.9561 31.398 34.4638C32.8743 36.7412 34.1562 39.472 35.0747 42.1498C35.2996 42.8126 35.5046 43.4701 35.6817 44.117C35.9825 45.2239 36.2128 46.303 36.3526 47.3078C36.4764 48.1735 36.5296 48.9914 36.5136 49.7351C36.5083 50.0347 36.487 50.317 36.4551 50.5795C36.4072 51.0183 36.3259 51.3974 36.2141 51.7235C36.0051 52.3492 35.6883 52.7761 35.2863 53.0014C35.2703 53.0067 35.2544 53.0173 35.2384 53.0226C35.1585 53.0544 35.072 53.0916 34.9868 53.1247C35.0347 53.1088 35.0893 53.0929 35.1372 53.077L35.7283 52.8198H35.7336C35.7336 52.8198 35.7336 52.8145 35.7389 52.8145C36.4258 52.5096 37.2897 52.0881 38.0205 51.7288C38.1443 51.6705 38.2561 51.6161 38.3693 51.5631C38.4066 51.5419 38.4385 51.5207 38.4771 51.4942C38.7127 51.3126 38.8631 50.9759 38.923 50.4788C38.955 50.1898 38.955 49.8477 38.923 49.4474C38.8964 49.2035 38.8631 48.941 38.8205 48.6573Z" fill="black"/>
<path d="M33.2204 43.0857C32.6347 40.0474 31.4845 36.9745 29.9271 34.534C29.6835 34.1523 29.4306 33.7864 29.167 33.4391C29.155 33.4431 29.1417 33.4457 29.1297 33.4497C29.1177 33.4537 29.1057 33.4563 29.0924 33.4589C29.1164 33.4523 29.1417 33.4444 29.1657 33.4377C29.0339 33.2628 28.9021 33.0971 28.769 32.9367C28.4814 32.5893 28.1926 32.2739 27.9037 31.9915C27.8531 32.0485 27.8052 32.1042 27.7613 32.1545C27.7573 32.1598 27.752 32.1651 27.748 32.1691C27.74 32.1784 27.7333 32.1863 27.7253 32.1956C27.7213 32.1996 27.7187 32.2036 27.7147 32.2076C27.7094 32.2142 27.7027 32.2221 27.6974 32.2288C27.6921 32.2341 27.6881 32.2394 27.6828 32.246C27.6814 32.2487 27.6788 32.2513 27.6761 32.2526C27.5909 32.3547 27.4991 32.4674 27.4099 32.5787C27.5789 32.7537 27.7467 32.942 27.9117 33.1395C28.0435 33.2959 28.1739 33.459 28.3017 33.63C28.327 33.626 28.351 33.622 28.3763 33.618C28.3683 33.6193 28.359 33.6207 28.351 33.6233C28.335 33.626 28.319 33.63 28.3031 33.6326C28.5893 34.0104 28.8582 34.4108 29.1124 34.8297C30.5767 37.2423 31.5165 40.2793 31.836 43.3097C31.9079 43.9884 31.9478 44.6658 31.9558 45.3353C31.9704 46.4992 31.8866 47.6392 31.7015 48.721C31.5405 49.6622 31.3009 50.5583 30.98 51.3841C31.0107 51.3788 31.0426 51.3736 31.0732 51.3682C31.0413 51.3736 31.0107 51.3802 30.9787 51.3855C30.8443 51.7301 30.6992 52.0536 30.5434 52.3572C30.2852 52.8622 29.999 53.3103 29.6901 53.6987C28.9407 54.6412 28.0555 55.2338 27.105 55.4711L27.0105 55.487C26.8388 55.5162 26.6684 55.5453 26.5007 55.5731C26.5992 55.5639 26.6977 55.5519 26.7949 55.536C26.7962 55.536 26.7962 55.536 26.7975 55.536L26.8095 55.5334L27.551 55.3995C27.5696 55.3955 27.5896 55.3915 27.6082 55.3862C27.6175 55.3849 27.6268 55.3823 27.6362 55.3809C27.6521 55.3783 27.6695 55.3743 27.6868 55.3717C27.7759 55.3531 27.8691 55.3332 27.965 55.3133C28.2219 55.263 28.4774 55.2113 28.7264 55.1556C29.0339 55.0867 29.344 55.0124 29.6209 54.9382C29.6808 54.9223 29.7407 54.905 29.7993 54.8891C29.9084 54.8573 30.015 54.8268 30.1188 54.7976C30.1427 54.7923 30.1667 54.7857 30.1893 54.7804C30.3025 54.7486 30.4196 54.7168 30.5381 54.685C30.5727 54.673 30.6086 54.6611 30.6433 54.6479C30.6486 54.6452 30.6552 54.6426 30.6605 54.6412C31.3328 54.3801 31.9292 53.8538 32.4097 53.0651C32.636 52.6939 32.837 52.2644 33.0074 51.7778C33.1072 51.4942 33.1964 51.1919 33.275 50.8711C33.243 50.8804 33.2111 50.887 33.1805 50.8963C33.2124 50.887 33.2443 50.8791 33.275 50.8698C33.468 50.0797 33.5838 49.2207 33.6304 48.3153C33.6836 47.2681 33.6423 46.1598 33.5145 45.0251C33.444 44.3835 33.3455 43.7353 33.2204 43.0857Z" fill="black"/>
<path d="M27.8878 51.6559C28.4029 50.7744 28.8169 49.8226 29.1444 48.8177C29.557 47.5398 29.8206 46.1877 29.9337 44.8143C30.0083 43.8625 30.0203 42.9014 29.955 41.9496C29.8099 39.8273 29.3108 37.7593 28.4681 35.9631C28.1673 35.3109 27.8185 34.6958 27.4272 34.1244C27.33 33.9905 27.2395 33.8619 27.1423 33.7347C27.0398 33.6008 26.9386 33.4722 26.8308 33.345C26.8627 33.3078 26.8894 33.2654 26.9173 33.227L26.9706 33.1474C26.7403 33.4629 26.4128 33.7135 25.9882 33.8792C25.7739 33.9654 25.5369 34.029 25.28 34.0767C25.2534 34.0767 25.2321 34.082 25.2108 34.0873C24.9419 34.1244 24.6584 34.1456 24.3415 34.1403C23.9342 34.1403 23.4883 34.0979 23.0051 34.017C18.2395 33.2097 11.5465 28.806 8.05218 24.1875C7.92838 24.0218 7.81121 23.8614 7.69807 23.701C7.15096 22.9202 6.73699 22.1884 6.45345 21.5203C5.89037 20.1841 5.83578 19.0878 6.27107 18.3295C6.28704 18.2977 6.30833 18.2659 6.32963 18.2327L5.73328 19.0613L5.70133 19.109C5.696 19.1143 5.6907 19.1196 5.68537 19.1302C5.68005 19.1408 5.6694 19.1514 5.65876 19.1673C5.55626 19.3171 5.45507 19.4775 5.34192 19.6432C5.20215 19.8513 5.05173 20.0767 4.90663 20.3007C4.75089 20.546 4.60047 20.7978 4.45005 21.0431C4.4394 21.059 4.43409 21.0696 4.42344 21.0802L4.40212 21.1226C4.39679 21.1332 4.39148 21.1385 4.38616 21.1491C4.38084 21.1597 4.37017 21.1757 4.36484 21.1863C4.35952 21.1916 4.35954 21.1968 4.35421 21.1968C4.34356 21.2181 4.33825 21.234 4.3276 21.2499C4.32227 21.2499 4.32227 21.2552 4.32227 21.2552C4.29564 21.3082 4.26901 21.3573 4.24238 21.4103C3.63005 22.6285 3.83504 24.3068 4.93458 26.2157C5.1875 26.6492 5.47638 27.0866 5.81982 27.5413C6.22183 28.0756 6.67308 28.5992 7.16694 29.1069C10.9235 32.9976 16.9949 35.9962 21.6313 36.0771C22.3076 36.093 22.9199 36.04 23.467 35.9326C24.3096 35.7669 24.9912 35.4673 25.5116 35.0563C25.517 35.051 25.5223 35.0457 25.5329 35.0404C26.687 39.2944 24.5133 44.3132 19.7797 47.3714V47.3768C19.194 47.7559 18.5883 48.0873 17.9706 48.3816C16.9669 48.8522 15.9366 49.2101 14.8956 49.4554C10.194 50.5517 5.38985 49.2949 2.81405 45.8854C2.53984 45.5222 2.2989 45.1431 2.08991 44.752C2.19241 44.9601 2.28824 45.1418 2.37477 45.3075C2.58908 45.7078 2.76612 46.0233 2.97112 46.3494C3.23469 46.767 3.53952 47.1991 3.99611 47.8566C4.00143 47.8619 4.00144 47.8672 4.00677 47.8725C4.01742 47.8831 4.02274 47.8938 4.03871 47.9097C4.13056 48.0276 4.23173 48.1615 4.33956 48.2888C4.40345 48.3683 4.47401 48.4492 4.54323 48.5234C7.33999 51.6506 12.1055 52.4407 16.5982 50.8115C17.4515 50.5013 18.2941 50.101 19.1154 49.6197C19.6039 49.3255 20.0872 49.0046 20.5544 48.6467C20.5384 48.6308 20.5278 48.6096 20.5118 48.5884C20.7527 48.6202 20.9577 48.2358 21.1454 48.086L21.5807 47.7068C21.6286 47.6644 21.6779 47.6207 21.7258 47.5783C21.8057 47.5093 21.8762 47.4338 21.9508 47.3595C21.9668 47.3489 21.9827 47.333 21.9987 47.3171C22.0679 47.2482 22.1385 47.1832 22.2077 47.1143L22.2663 47.056C22.3142 47.0029 22.3688 46.9486 22.4167 46.9009C22.4433 46.8744 22.4699 46.8425 22.4912 46.8147C22.5338 46.7723 22.5778 46.7232 22.6204 46.6808C22.647 46.649 22.6736 46.6225 22.7002 46.5893C22.7375 46.5469 22.7814 46.5032 22.8187 46.4554C22.8453 46.4289 22.8719 46.3971 22.8986 46.364C22.9358 46.3216 22.9731 46.2725 23.0117 46.2301C23.0383 46.1983 23.065 46.1718 23.0916 46.1386C23.1022 46.128 23.1076 46.1174 23.1182 46.1015C23.1502 46.0697 23.1768 46.0326 23.2047 45.9994C23.226 45.9676 23.2527 45.9411 23.274 45.908C23.3165 45.8603 23.3538 45.8112 23.3924 45.7582C23.4137 45.7317 23.435 45.7052 23.4563 45.6786C23.5043 45.615 23.5535 45.55 23.6014 45.4864C23.6121 45.4758 23.6227 45.4599 23.6281 45.4493C23.676 45.3803 23.7252 45.3154 23.7731 45.2465C23.7838 45.2359 23.7944 45.2253 23.7998 45.2147C23.8157 45.1935 23.8317 45.1669 23.8477 45.1457C23.8637 45.1245 23.8743 45.1033 23.8903 45.0821C23.8956 45.0768 23.9009 45.0662 23.9116 45.0556C23.9222 45.0397 23.9329 45.0238 23.9382 45.0079C23.9488 44.9973 23.9542 44.9867 23.9595 44.9814C23.9808 44.9495 24.0021 44.9177 24.0181 44.8899C24.0447 44.8527 24.0713 44.8157 24.0926 44.7772C24.098 44.7666 24.1033 44.756 24.1139 44.7454C24.1139 44.7454 24.1139 44.7401 24.1192 44.7401C24.1246 44.7242 24.1352 44.7083 24.1459 44.6923C24.1565 44.6764 24.1672 44.6606 24.1778 44.6446C24.2098 44.5969 24.2364 44.5479 24.2697 44.5001C24.275 44.4895 24.2856 44.4736 24.291 44.463C24.291 44.463 24.2963 44.4577 24.2963 44.4524C24.3069 44.4365 24.3176 44.4153 24.3283 44.3994C24.3602 44.3517 24.3868 44.3026 24.4148 44.2549C24.4361 44.2231 24.452 44.1913 24.4733 44.1581C24.4787 44.1475 24.4893 44.1369 24.4946 44.121C24.5 44.1157 24.5053 44.1051 24.5053 44.0998C24.5159 44.0839 24.5266 44.068 24.5372 44.0468C24.5425 44.0362 24.5532 44.0203 24.5585 44.0044C24.5798 43.9725 24.5958 43.9407 24.6118 43.9076C24.6224 43.8917 24.6277 43.8811 24.6384 43.8652C24.6437 43.8545 24.6491 43.8386 24.6544 43.828C24.6704 43.8068 24.681 43.7856 24.6917 43.7644C24.697 43.7591 24.697 43.7538 24.7023 43.7485C24.7129 43.7167 24.7289 43.6902 24.7449 43.6623C24.7502 43.6517 24.7555 43.6358 24.7662 43.6252C24.7821 43.5934 24.7981 43.5616 24.8141 43.5284C24.8248 43.5072 24.8354 43.4807 24.8514 43.4595C24.8514 43.4489 24.8567 43.4436 24.862 43.433C24.862 43.4277 24.8673 43.4224 24.8727 43.4171C24.878 43.4065 24.8833 43.3959 24.8887 43.3853C24.9046 43.3482 24.9206 43.3111 24.9366 43.2779C24.9525 43.2408 24.9739 43.2037 24.9898 43.1652C24.9898 43.1652 24.9951 43.1599 24.9951 43.1546C25.0005 43.144 25.0058 43.1387 25.0058 43.1281C25.0218 43.0963 25.0378 43.0645 25.0537 43.0313C25.059 43.0154 25.0644 42.9995 25.075 42.9889C25.0803 42.9624 25.091 42.9359 25.107 42.9147C25.107 42.9094 25.1123 42.8988 25.1123 42.8935C25.1176 42.8829 25.1176 42.8776 25.1229 42.8723C25.1283 42.8563 25.1336 42.8457 25.1389 42.8351C25.1496 42.8192 25.1549 42.8033 25.1602 42.7874C25.1815 42.745 25.1975 42.7079 25.2135 42.6641C25.2188 42.6482 25.2294 42.627 25.2347 42.6111C25.2454 42.5899 25.2507 42.574 25.2561 42.5581C25.2614 42.5528 25.2667 42.5475 25.2667 42.5422C25.2667 42.5369 25.2667 42.5316 25.272 42.5263C25.2773 42.5157 25.2827 42.4998 25.288 42.4892C25.2987 42.468 25.304 42.4467 25.3093 42.4255C25.3146 42.4202 25.3146 42.4149 25.3146 42.4096C25.3253 42.3937 25.3359 42.3725 25.3412 42.3513C25.3466 42.3301 25.3572 42.3142 25.3625 42.293C25.3732 42.2612 25.3892 42.2293 25.3998 42.1909C25.4105 42.175 25.4158 42.1538 25.4211 42.1326C25.4265 42.1167 25.4371 42.1061 25.4424 42.0901C25.4477 42.0742 25.4477 42.0636 25.4531 42.0477C25.469 42.0106 25.4797 41.9735 25.4956 41.935C25.5063 41.9032 25.5169 41.8714 25.5276 41.833C25.5329 41.8277 25.5329 41.8277 25.5329 41.8224C25.5542 41.7587 25.5808 41.6885 25.5968 41.6249C25.6075 41.593 25.6128 41.5612 25.6235 41.5281C25.6288 41.5175 25.6341 41.5122 25.6341 41.5069C25.6501 41.4485 25.6661 41.3942 25.682 41.3411C25.6874 41.3252 25.6927 41.3093 25.698 41.2934C25.7033 41.2775 25.7033 41.2669 25.7086 41.251C25.7299 41.1821 25.7566 41.1065 25.7725 41.0376C25.7832 41.0005 25.7938 40.9687 25.7992 40.9355C25.8258 40.8441 25.8471 40.7592 25.863 40.6731C25.879 40.6253 25.8897 40.5763 25.895 40.5285C25.9216 40.4424 25.9376 40.3576 25.9483 40.2714C25.9536 40.2343 25.9642 40.1971 25.9695 40.1587C25.9695 40.1534 25.9696 40.1481 25.9749 40.1375C25.9802 40.0951 25.9908 40.0513 25.9962 40.0089C26.0175 39.9227 26.0281 39.8326 26.0388 39.7464C26.0441 39.7305 26.0441 39.7146 26.0441 39.6987C26.0547 39.6457 26.0601 39.5966 26.0654 39.5436C26.0654 39.533 26.0654 39.5171 26.0707 39.5065C26.0707 39.4906 26.076 39.4747 26.076 39.4588C26.0814 39.4216 26.0867 39.3792 26.092 39.3355L26.108 39.1592C26.1133 39.1433 26.1133 39.1327 26.1133 39.1168V39.1115C26.1186 39.0956 26.1187 39.0849 26.1187 39.069C26.1187 39.0584 26.1187 39.0478 26.124 39.0425V38.9895C26.1293 38.9683 26.1293 38.9524 26.1293 38.9312C26.1346 38.9046 26.1346 38.8834 26.1346 38.8569C26.1346 38.841 26.1399 38.8251 26.1399 38.8039V38.7562C26.1453 38.7297 26.1453 38.7032 26.1453 38.682V38.6554C26.1506 38.6395 26.1506 38.6183 26.1506 38.6024V38.5176C26.1559 38.4964 26.1559 38.4752 26.1559 38.4539V38.385C26.1559 38.3797 26.1559 38.3797 26.1559 38.3797V38.3479C26.1559 38.3214 26.1612 38.2895 26.1612 38.2564V37.9939C26.1612 37.9727 26.1613 37.9568 26.1559 37.9356V37.7699C26.1506 37.7593 26.1506 37.7434 26.1506 37.7328V37.6904C26.1506 37.6639 26.1453 37.632 26.1453 37.5989V37.5724C26.1453 37.5618 26.1453 37.5618 26.1399 37.5565C26.1399 37.5512 26.1399 37.5512 26.1399 37.5512C26.1453 37.5459 26.1399 37.5406 26.1399 37.53V37.4769C26.1399 37.4663 26.1399 37.4557 26.1346 37.4451C26.1346 37.4451 26.1346 37.4451 26.1346 37.4398C26.1346 37.4186 26.1346 37.3974 26.1293 37.3709C26.1293 37.3444 26.1293 37.3232 26.124 37.2966C26.124 37.2754 26.124 37.2543 26.1187 37.2277V37.2065C26.1187 37.1959 26.1133 37.1853 26.1133 37.1747V37.1429C26.108 37.1376 26.108 37.127 26.108 37.1111C26.108 37.1005 26.108 37.0899 26.1027 37.0793C26.1027 37.074 26.1027 37.0739 26.1027 37.0686C26.0973 37.0421 26.0974 37.0103 26.092 36.9825V36.956C26.0867 36.9242 26.0814 36.8923 26.076 36.8592V36.8221C26.0707 36.8062 26.0707 36.7903 26.0654 36.7743C26.0654 36.7584 26.0654 36.7478 26.0601 36.7319C26.0601 36.7213 26.0601 36.7107 26.0548 36.7001C26.0548 36.6736 26.0494 36.6418 26.0441 36.614C26.0441 36.6087 26.0441 36.5981 26.0388 36.5928C26.0334 36.5556 26.0281 36.5238 26.0228 36.4854C26.0228 36.4801 26.0228 36.4801 26.0228 36.4801C26.0228 36.4695 26.0175 36.4642 26.0175 36.4536C26.0175 36.4483 26.0175 36.4482 26.0175 36.4429C26.0122 36.4217 26.0068 36.3952 26.0015 36.3687C25.9962 36.3263 25.9855 36.2825 25.9749 36.2401C25.9749 36.2242 25.9695 36.2083 25.9695 36.1924C25.9642 36.1818 25.9642 36.1659 25.9589 36.1553C25.9589 36.1394 25.9536 36.1235 25.9536 36.1076C25.9429 36.0704 25.9376 36.0386 25.9269 36.0002C25.9216 35.979 25.9216 35.9631 25.9163 35.9418C25.911 35.9259 25.9056 35.91 25.9003 35.8888C25.895 35.8676 25.8897 35.8464 25.8844 35.8252C25.8844 35.8093 25.879 35.7987 25.8737 35.7828C25.8737 35.7722 25.8684 35.7563 25.8684 35.7457C25.8577 35.7138 25.8524 35.682 25.8418 35.6489C25.8311 35.6118 25.8205 35.5747 25.8098 35.5362C25.8098 35.5309 25.8098 35.5256 25.8045 35.5203C25.8045 35.5044 25.7991 35.4832 25.7938 35.4673C25.7885 35.462 25.7885 35.4514 25.7885 35.4514C25.7885 35.4461 25.7885 35.4408 25.7832 35.4355L25.7779 35.4302C25.7779 35.4249 25.7779 35.4142 25.7725 35.4089C25.7566 35.3506 25.7406 35.2963 25.7193 35.238L25.7619 35.1465L25.9389 34.7992C27.4884 38.1013 27.1623 42.3354 25.2081 46.0206C24.4227 47.5027 23.3738 48.8973 22.0786 50.1049C22.0839 50.1089 22.0879 50.1116 22.0932 50.1155C22.0879 50.1129 22.0826 50.1089 22.0786 50.1062C21.6952 50.4469 21.3065 50.7637 20.9151 51.058C20.2323 51.5697 19.54 52.0085 18.8425 52.3744C15.4095 54.1706 11.8526 54.1786 8.70177 52.3147C8.68047 52.3028 8.6605 52.2895 8.6392 52.2776C8.66716 52.2962 8.6951 52.3161 8.72305 52.3346C8.81623 52.3996 8.90676 52.4606 8.99328 52.5189C9.03188 52.5441 9.07317 52.5706 9.1131 52.5971C9.13307 52.6104 9.15303 52.6223 9.173 52.6356C9.20894 52.6581 9.24489 52.6806 9.28216 52.7032C9.43525 52.7999 9.58432 52.8901 9.72675 52.9722C9.74672 52.9842 9.76801 52.9961 9.78798 53.0067C9.95304 53.0995 10.1394 53.2042 10.3311 53.3103C10.3364 53.3143 10.3431 53.3169 10.3484 53.3209C10.4882 53.3965 10.628 53.4694 10.7664 53.5396C11.03 53.6788 11.2775 53.7968 11.5904 53.9373C11.7594 54.0129 11.9498 54.0964 12.1694 54.1918C12.1841 54.1985 12.1987 54.2051 12.2147 54.2117C12.2067 54.2077 12.1987 54.2038 12.1894 54.2011C12.0203 54.1295 11.8553 54.0526 11.6915 53.9691C12.0776 54.1335 12.4956 54.3032 12.9029 54.4636C15.2977 55.2139 18.0438 54.8136 20.5611 53.2917C21.2253 52.8901 21.8749 52.4115 22.4966 51.8534C22.836 51.5485 23.1675 51.2224 23.4896 50.8711C23.4803 50.8672 23.471 50.8618 23.4603 50.8579C23.4697 50.8618 23.4803 50.8658 23.4896 50.8711C24.5119 49.7576 25.3506 48.5062 25.9988 47.1819C27.0997 44.931 27.6495 42.4706 27.6122 40.1229C27.6029 39.5595 27.5603 39.0041 27.4831 38.4579C27.2781 37.009 26.8295 35.6383 26.1306 34.428L26.1319 34.4267C26.1745 34.3524 26.2185 34.2822 26.2558 34.2132C26.2664 34.2079 26.2664 34.1973 26.2717 34.192C26.293 34.1602 26.3143 34.1284 26.3303 34.0953L26.4914 33.8434C26.755 34.2013 26.9959 34.5857 27.2102 34.9821C27.8332 36.1102 28.2778 37.3709 28.5467 38.7018C28.5893 38.9312 28.6332 39.1618 28.6705 39.3965C28.9061 40.909 28.9234 42.4971 28.7237 44.068C28.5307 45.5752 28.1447 47.0719 27.5643 48.477C27.1183 49.5561 26.5553 50.5835 25.879 51.518C25.6155 51.8813 25.3426 52.2233 25.063 52.5388C24.5798 53.0836 24.0753 53.5595 23.5495 53.9665C21.7671 55.3504 19.777 55.9549 17.8761 55.7415C18.2408 55.7892 18.6162 55.833 18.9663 55.8701H18.9823C19.0196 55.8754 19.0515 55.8807 19.0848 55.8807C19.1647 55.8913 19.2459 55.8966 19.3204 55.9072C19.363 55.9072 19.4069 55.9125 19.4495 55.9125C19.5015 55.9152 19.5574 55.9191 19.6133 55.9218C19.556 55.9191 19.5014 55.9152 19.4482 55.9125C19.6359 55.9271 19.8316 55.9417 20.0326 55.9536C20.2709 55.9682 20.5038 55.9801 20.7101 55.9854C20.7208 55.9854 20.7328 55.9854 20.7434 55.9867C20.778 55.9881 20.8126 55.9894 20.8486 55.9894C20.8765 55.9907 20.9045 55.9907 20.9311 55.992C20.9617 55.9934 20.9937 55.9934 21.0243 55.9947C21.0909 55.996 21.1574 55.9973 21.22 55.9973C21.2666 55.9973 21.3145 55.9987 21.3611 55.9987C21.3811 55.9987 21.401 55.9987 21.421 55.9987C21.425 55.9987 21.4303 56 21.4343 56H21.5741C21.6979 56 21.8203 55.9947 21.9388 55.9841C23.3498 55.8767 24.7409 55.2418 25.9749 54.0924C26.3995 53.6974 26.8068 53.2374 27.1929 52.7138C27.4418 52.3731 27.6681 52.0257 27.8878 51.6559Z" fill="black"/>
<path d="M2.07259 44.7321C2.07658 44.7401 2.08192 44.7494 2.08591 44.7573C2.07393 44.7334 2.06062 44.7083 2.04864 44.6844C2.05663 44.7003 2.0646 44.7162 2.07259 44.7321Z" fill="black"/>
<path d="M57.3969 8.64444C57.5326 8.83666 57.6591 9.03417 57.7762 9.23434C57.6618 9.05538 57.538 8.86185 57.3969 8.64444Z" fill="black"/>
<path d="M58.4418 29.7843C57.4035 30.8196 55.9233 31.6296 54.049 32.0935C54.0463 32.1041 54.0424 32.1148 54.0397 32.1241C54.0424 32.1134 54.045 32.1028 54.049 32.0935C51.6809 32.6795 49.0412 32.6251 46.5027 32.0551C44.5459 31.6163 42.6476 30.87 40.9797 29.8758C39.3836 28.924 37.9979 27.7442 36.9716 26.3854C36.8664 26.2462 36.7666 26.1057 36.6707 25.9665C36.5616 26.0049 36.4338 26.05 36.282 26.1043C36.2101 26.1322 36.1316 26.164 36.0517 26.1958C36.2421 26.51 36.4564 26.8268 36.6974 27.1436C36.704 27.1291 36.7093 27.1158 36.7147 27.1012C36.7093 27.1158 36.7027 27.1291 36.6974 27.1436C37.2099 27.821 37.8062 28.4653 38.4705 29.0711C39.5327 30.0402 40.7641 30.9058 42.0952 31.6402C45.6068 33.5783 49.7986 34.591 53.3182 34.1138C53.3595 34.0184 53.4021 33.9216 53.4407 33.8261C53.4007 33.9216 53.3608 34.017 53.3195 34.1138C54.439 33.9613 55.4068 33.6697 56.2135 33.2628C57.1998 32.7656 57.9426 32.0989 58.4259 31.3088C58.4392 31.2876 58.4525 31.2664 58.4645 31.2451C58.5137 31.1603 58.5603 31.0755 58.6029 30.988C58.6149 30.9641 58.6269 30.9403 58.6389 30.9164C58.6628 30.866 58.6867 30.8143 58.7094 30.7626C58.712 30.7587 58.7134 30.7533 58.716 30.748C58.8012 30.5346 58.8891 30.3053 58.9796 30.068C58.9956 30.0269 59.0116 29.9845 59.0275 29.9434C59.3058 29.2063 59.5973 28.3937 59.8382 27.6766C59.8422 27.6673 59.8449 27.6567 59.8489 27.6461C59.8475 27.65 59.8462 27.654 59.8435 27.658C59.5467 28.4335 59.0768 29.1506 58.4418 29.7843Z" fill="black"/>
<path d="M12.2586 46.9791C13.659 46.9579 15.082 46.755 16.4611 46.3534C17.3902 46.0856 18.2967 45.733 19.1713 45.2902C23.4603 43.1202 25.7672 39.3792 25.5369 35.7443C25.5263 35.6264 25.5209 35.5097 25.505 35.397C25.5103 35.4832 25.5103 35.5627 25.5156 35.7072C25.5156 35.7072 25.5156 35.7125 25.5156 35.7178C25.0377 36.6643 24.2324 37.4703 23.1169 38.0695C22.2956 38.5083 21.3025 38.8344 20.1591 39.016H20.1537C16.7832 39.5555 12.8217 38.7429 9.40862 37.0488C7.79259 36.2521 6.307 35.2525 5.06636 34.1032C4.45403 33.5425 3.90162 32.938 3.42374 32.307C1.79706 30.1528 1.32447 28.0305 1.86759 26.2833C1.87824 26.2568 1.88359 26.225 1.89424 26.1985C1.89424 26.1932 1.89953 26.1879 1.89953 26.1826C1.89953 26.1773 1.90486 26.1719 1.90486 26.1666C1.94214 26.0646 1.97943 25.9691 2.02335 25.8724C1.99141 25.9413 1.96479 26.0169 1.93151 26.0858C1.87294 26.2356 1.81303 26.3854 1.75446 26.5299C1.74913 26.5405 1.74912 26.5511 1.7438 26.5617C1.73847 26.5723 1.73314 26.5829 1.73314 26.5935C1.68522 26.7274 1.63598 26.8613 1.58273 26.9991C1.54014 27.1118 1.50287 27.2285 1.45894 27.3518C1.427 27.4539 1.38972 27.5493 1.35644 27.6408C1.19005 28.122 1.00236 28.753 0.862588 29.2713C0.851939 29.3243 0.835961 29.3787 0.825312 29.4264C0.819987 29.437 0.819977 29.4529 0.814652 29.4635C0.814652 29.4688 0.814652 29.4688 0.814652 29.4688C0.814652 29.4741 0.814652 29.4741 0.814652 29.4741C0.814652 29.4741 0.814652 29.4741 0.814652 29.4794C0.809327 29.4794 0.809322 29.4847 0.809322 29.49C0.0359192 33.3065 2.69826 36.9573 6.78891 39.1963C8.46883 40.1163 10.3897 40.8003 12.4144 41.1582C14.712 41.5639 17.1373 41.5586 19.4881 41.0137H19.4935C22.0426 40.3191 23.5029 39.1539 24.3509 38.0788C25.0803 37.1482 25.3652 36.2879 25.5103 35.8345C25.4784 36.7969 25.2201 38.1331 24.2976 39.5277C23.3738 40.9276 21.7857 42.3871 19.0915 43.6H19.0861C17.8135 44.0812 16.521 44.3967 15.2378 44.5624C13.466 44.7971 11.7222 44.7494 10.0742 44.4657C4.6484 43.5245 0.332788 39.9705 0.0319465 35.1544C0.0266219 35.0683 0.0266115 34.9781 0.0212868 34.8867V34.9887C0.0212868 35.0152 0.015957 35.0418 0.015957 35.0683V35.116C0.0106324 35.1849 0.0106272 35.2552 0.0106272 35.3241L2.81225e-09 35.5216C2.81225e-09 35.5535 0.00529734 35.5799 0.00529734 35.6078C-2.7296e-05 35.7152 2.81225e-09 35.8212 2.81225e-09 35.9286C0.00532464 36.0996 0.0106376 36.2759 0.0212868 36.4522C0.0266115 36.5 0.0266167 36.5543 0.0266167 36.602C0.0319413 36.6656 0.0319192 36.7253 0.0372438 36.7836C0.0372438 36.7889 0.0372438 36.789 0.0372438 36.7943V36.8579C0.0372438 36.895 0.037249 36.9321 0.0425737 36.9705V37.0077C0.0478983 37.0713 0.0479087 37.131 0.0532333 37.1946C0.058558 37.2582 0.0638657 37.3285 0.0691903 37.4027C0.0691903 37.4027 0.0691903 37.408 0.0691903 37.4133C0.074515 37.4557 0.07985 37.4981 0.07985 37.5366C0.0851746 37.5843 0.0905149 37.6334 0.0958395 37.6811C0.101164 37.7288 0.106472 37.7832 0.111796 37.8309C0.117121 37.8839 0.122461 37.9382 0.127786 37.9913C0.127786 37.9966 0.133116 38.0072 0.133116 38.0178C0.13844 38.0814 0.149078 38.1464 0.154403 38.21C0.159727 38.2577 0.16504 38.3121 0.175689 38.3598V38.381C0.175689 38.3863 0.175689 38.3863 0.175689 38.3863C0.181014 38.4288 0.186354 38.4659 0.191679 38.5096C0.191679 38.5308 0.197009 38.5467 0.197009 38.5679V38.5839L0.218296 38.7177C0.218296 38.723 0.218296 38.723 0.218296 38.7283C0.218296 38.7389 0.223625 38.7443 0.223625 38.7496C0.416643 40.054 0.942454 41.3253 1.82368 42.4958C4.06801 45.4665 8.07212 47.044 12.2586 46.9791Z" fill="black"/>
<path d="M40.7321 0.02916C40.7694 0.0344626 40.8066 0.0397483 40.8452 0.0450508C41.785 0.163032 42.7075 0.515675 43.5821 1.09763C44.3395 1.60534 45.0584 2.28406 45.708 3.1444C45.7892 3.25177 45.869 3.36843 45.9489 3.48111C46.3669 4.07499 46.733 4.72058 47.0445 5.4046C47.8871 7.24856 48.365 9.37618 48.4555 11.5515C48.4928 12.4225 48.4715 13.2987 48.3863 14.171C48.2571 15.5231 47.9789 16.8541 47.5543 18.1161C47.2002 19.158 46.7436 20.1522 46.1859 21.0616C45.9662 21.4302 45.7293 21.7722 45.483 22.093C45.1129 22.5795 44.7149 23.0183 44.3023 23.4027C42.8366 24.7549 41.1621 25.423 39.4981 25.3859H39.4968C39.4742 25.3819 39.4515 25.3792 39.4289 25.3739L39.4955 25.3859H39.4116C39.4435 25.3859 39.4861 25.3859 39.5141 25.3912C41.5907 25.7544 43.8244 25.1671 45.8038 23.6493C46.319 23.2595 46.8128 22.8048 47.2854 22.2918C47.5756 21.971 47.8538 21.6343 48.1333 21.2711H48.1387V21.2658C48.8735 20.2769 49.4858 19.1925 49.969 18.0485C50.5867 16.5783 50.9887 15.0181 51.171 13.4459C51.5251 10.4685 51.0912 7.45933 49.8452 5.03342C49.5603 4.48328 49.2382 3.95966 48.8735 3.47846C48.3743 2.81564 47.8272 2.26549 47.2415 1.8108C46.319 1.10026 45.31 0.645584 44.2517 0.432157C44.2357 0.426855 44.2144 0.421537 44.1931 0.416234L43.8816 0.36853C43.63 0.326109 43.3771 0.277065 43.1255 0.239947C43.0017 0.22404 42.8792 0.208118 42.7661 0.19221C42.7075 0.186908 42.6423 0.181622 42.5784 0.176319C42.235 0.133899 41.8915 0.102076 41.5428 0.0689355C41.4842 0.0636329 41.419 0.0636226 41.3604 0.05832C41.2632 0.047715 41.1674 0.0424241 41.0649 0.0371216C41.0436 0.0371216 41.017 0.0318139 40.9957 0.0318139H40.9371C40.8506 0.0265113 40.7601 0.0211933 40.6682 0.0158908C40.5937 0.0105882 40.5125 0.0106102 40.4273 0.00530771C40.2981 0.00530771 40.1584 0 40.0253 0C40.1437 0.00530253 40.2662 0.0105882 40.3953 0.0158908C40.5005 0.018542 40.619 0.0238575 40.7321 0.02916Z" fill="black"/>
</svg>
