<svg width="244" height="243" viewBox="0 0 244 243" fill="none" xmlns="http://www.w3.org/2000/svg">
<path d="M121.988 241.523C188.808 241.523 242.977 188.129 242.977 121.704C242.977 55.2791 188.808 1.43115 121.988 1.43115C55.1683 1.43115 1 55.2791 1 121.704C1 188.129 55.1683 241.523 121.988 241.523Z" stroke="#141414" stroke-miterlimit="10"/>
<path d="M121.988 241.508L121.988 0.962158" stroke="#141414" stroke-miterlimit="10"/>
<path d="M1 121.235L242.977 121.235" stroke="#141414" stroke-miterlimit="10"/>
<path d="M1.39923 128.295C1.39923 128.295 19.0151 208.457 122.218 208.457C229.898 208.457 242.565 127.008 242.565 127.008" stroke="#141414" stroke-miterlimit="10"/>
<path d="M242.565 116.328C242.565 116.328 225.179 33.7606 121.988 33.7606C14.3087 33.7606 1.39923 117.615 1.39923 117.615" stroke="#141414" stroke-miterlimit="10"/>
<path d="M207.418 206.869L36.3528 36.8153" stroke="#141414" stroke-miterlimit="10"/>
<path d="M36.0745 206.388L207.176 36.3102" stroke="#141414" stroke-miterlimit="10"/>
<path d="M121.988 173.181C150.587 173.181 173.771 150.134 173.771 121.704C173.771 93.2742 150.587 70.2273 121.988 70.2273C93.3894 70.2273 71.5955 93.0125 71.5955 121.442C71.5955 149.872 93.3894 173.181 121.988 173.181Z" stroke="#141414" stroke-miterlimit="10"/>
<path d="M121.988 173.181C188.808 173.181 242.977 150.134 242.977 121.704C242.977 93.2742 188.808 70.2273 121.988 70.2273C55.1683 70.2273 1 93.2742 1 121.704C1 150.134 55.1683 173.181 121.988 173.181Z" stroke="#141414" stroke-miterlimit="10"/>
<path d="M121.988 241.523C150.446 241.523 174.651 187.056 174.651 120.988C174.651 54.9205 151.581 1.36194 123.123 1.36194C94.6653 1.36194 71.5955 54.9205 71.5955 120.988C71.5955 187.056 93.5303 241.523 121.988 241.523Z" stroke="#141414" stroke-miterlimit="10"/>
<path d="M121.982 241C170.307 241 209 186.695 209 120.627C209 54.5588 169.825 1 121.5 1C73.1751 1 34 54.5588 34 120.627C34 186.695 73.657 241 121.982 241Z" stroke="#141414" stroke-miterlimit="10"/>
</svg>
