<svg width="100" height="100" viewBox="0 0 52 52" fill="none" xmlns="http://www.w3.org/2000/svg">
<path d="M9.05382 26.0178C10.2909 25.8356 11.4353 25.6367 12.4935 25.4123C15.7492 24.7219 18.2835 23.7722 20.2359 22.248L20.2366 22.2474C22.5982 20.4005 24.0022 17.8408 24.9582 14.2834C25.3745 12.7345 25.7109 10.9763 26.0044 8.9794C26.2452 10.6117 26.514 12.0827 26.8309 13.4085C27.6451 16.8154 28.7999 19.3706 30.7083 21.2776C32.6159 23.1838 35.1811 24.3472 38.5953 25.1656C39.9006 25.4785 41.3453 25.7443 42.9439 25.9814C41.6997 26.1649 40.5497 26.3656 39.4866 26.5926C36.2285 27.2883 33.6958 28.2478 31.7265 29.7895C29.3808 31.6198 27.9872 34.1822 27.0368 37.7363C26.6254 39.2749 26.2918 41.0202 26.0004 42.9995C25.6845 40.8571 25.3186 38.9894 24.8573 37.3608C23.8345 33.7498 22.3142 31.2092 19.7478 29.4238C17.7861 28.0499 15.2767 27.181 12.0942 26.5393C11.1492 26.3488 10.1372 26.1769 9.05382 26.0178Z" fill="#currentColor" stroke="#141414"/>
</svg>
